<?xml version="1.0" standalone="no"?>
<!DOCTYPE svg PUBLIC "-//W3C//DTD SVG 20010904//EN"
 "http://www.w3.org/TR/2001/REC-SVG-20010904/DTD/svg10.dtd">
<svg version="1.0" xmlns="http://www.w3.org/2000/svg"
 width="563.000000pt" height="563.000000pt" viewBox="0 0 563.000000 563.000000"
 preserveAspectRatio="xMidYMid meet">
<metadata>
Created by potrace 1.11, written by Peter Selinger 2001-2013
</metadata>
<g transform="translate(0.000000,563.000000) scale(0.100000,-0.100000)"
fill="#000000" stroke="none">
<path d="M2570 5463 c-344 -36 -639 -119 -935 -263 -280 -136 -503 -298 -731
-532 -216 -221 -339 -394 -480 -678 -122 -245 -210 -528 -251 -805 -25 -167
-24 -569 1 -740 40 -267 121 -529 238 -774 65 -137 82 -168 167 -301 228 -356
562 -666 947 -878 744 -410 1641 -436 2414 -70 535 253 975 684 1236 1213 287
581 355 1215 198 1838 -83 331 -252 686 -448 942 -518 675 -1299 1061 -2134
1053 -103 0 -203 -3 -222 -5z m-1072 -862 c15 -25 59 -103 98 -173 53 -99 74
-128 89 -128 11 0 31 -7 43 -16 49 -34 10 -114 -55 -114 -56 0 -73 15 -73 62
0 33 -17 73 -85 198 l-86 157 -102 -18 c-298 -54 -460 -80 -474 -75 -12 5 -10
12 11 38 l25 33 273 45 c150 25 281 44 290 42 10 -2 30 -25 46 -51z m2937 14
c293 -46 310 -51 324 -82 6 -14 10 -28 7 -31 -5 -4 -137 15 -421 63 -131 23
-141 23 -153 7 -7 -9 -49 -80 -92 -156 -65 -116 -77 -146 -73 -172 7 -41 -24
-74 -69 -74 -82 0 -94 105 -15 126 16 4 48 52 115 173 51 93 96 171 99 175 11
11 55 6 278 -29z m-3093 -462 c110 -185 127 -208 156 -215 65 -17 78 -83 27
-134 -34 -34 -79 -32 -117 6 -27 28 -29 34 -23 78 6 46 4 53 -58 158 -103 175
-139 234 -146 238 -3 2 -112 -13 -241 -35 -305 -51 -334 -50 -291 2 17 22 45
28 268 65 136 23 260 42 275 43 24 1 37 -16 150 -206z m3391 157 c106 -17 201
-32 212 -36 27 -7 50 -43 37 -56 -6 -6 -104 5 -268 30 -143 22 -262 38 -266
35 -5 -2 -55 -84 -113 -181 -99 -165 -105 -179 -100 -217 5 -32 2 -46 -15 -68
-44 -56 -140 -22 -140 50 0 28 41 73 68 73 12 0 28 18 47 53 26 49 138 236
192 321 l25 39 65 -7 c35 -4 151 -20 256 -36z m-1728 -325 c23 -14 57 -25 75
-25 23 0 46 -11 75 -34 24 -20 58 -37 81 -41 74 -13 103 -26 138 -65 19 -21
38 -54 41 -74 5 -26 13 -36 32 -41 42 -10 130 -101 147 -153 9 -25 16 -51 16
-58 0 -7 11 -30 25 -50 13 -20 27 -52 30 -73 3 -20 13 -51 21 -69 8 -18 14
-43 14 -56 0 -13 9 -31 20 -41 24 -22 44 -88 35 -116 -4 -13 0 -28 12 -41 20
-23 34 -115 37 -243 1 -59 6 -88 19 -108 36 -55 14 -215 -41 -297 -9 -14 -22
-55 -28 -91 -13 -75 -74 -206 -116 -251 -15 -17 -28 -38 -28 -48 0 -26 -53
-94 -92 -118 -18 -11 -49 -23 -68 -27 -19 -4 -76 -31 -126 -61 -136 -80 -280
-110 -401 -81 l-62 14 -47 -31 c-44 -29 -54 -31 -129 -30 -57 1 -94 8 -128 23
-27 12 -65 21 -85 21 -21 0 -53 10 -72 22 -19 12 -66 38 -105 58 -134 69 -158
85 -184 119 -14 19 -71 83 -127 141 -72 76 -105 119 -116 151 -8 24 -23 67
-32 94 -26 73 -36 141 -26 174 10 37 4 179 -10 215 -22 58 -4 163 35 206 17
18 17 21 0 46 -28 43 -2 161 40 177 10 4 15 20 15 45 0 48 30 119 64 152 18
16 26 34 26 55 0 45 44 141 74 160 14 9 32 35 41 58 22 56 62 99 119 127 29
13 57 37 73 61 30 45 46 57 178 124 113 58 185 73 262 53 45 -11 47 -10 69 18
46 57 121 60 209 9z m-1828 3 c64 -60 -7 -151 -88 -113 -33 16 -37 15 -179
-36 -80 -28 -164 -56 -187 -62 l-42 -10 -88 78 c-48 43 -94 84 -102 91 -19 17
-5 54 21 54 11 0 52 -28 92 -62 39 -34 78 -68 86 -75 13 -10 36 -5 130 28 63
23 137 48 164 57 30 10 51 24 54 35 12 47 95 56 139 15z m3399 -3 c27 -30 60
-45 190 -90 l156 -55 52 42 c28 23 67 57 87 76 22 20 44 32 55 30 20 -3 30
-35 17 -54 -13 -17 -194 -164 -203 -164 -5 0 -59 18 -122 41 -234 84 -227 82
-257 69 -44 -18 -91 -9 -114 22 -18 24 -19 30 -7 59 13 31 56 58 94 59 10 0
34 -16 52 -35z m-3705 -346 c41 -17 115 -48 164 -69 399 -169 395 -168 427
-156 34 12 70 -3 94 -38 32 -51 -9 -116 -73 -116 -41 0 -83 31 -83 61 0 23
-11 29 -270 134 -118 48 -246 100 -284 116 l-70 29 -105 -67 c-58 -37 -158
-101 -221 -144 -131 -86 -152 -96 -169 -75 -20 24 -5 50 46 82 26 16 133 84
237 151 105 67 201 122 212 122 12 1 55 -13 95 -30z m4238 -126 c203 -131 241
-160 241 -180 0 -13 -7 -26 -15 -29 -9 -4 -105 53 -246 145 -126 83 -234 152
-238 154 -17 5 -623 -259 -629 -273 -12 -36 -46 -60 -82 -60 -41 0 -65 20 -75
62 -6 22 -1 33 24 59 27 26 37 30 64 25 18 -4 39 -7 47 -7 8 0 152 58 320 130
168 72 315 131 327 131 12 0 130 -70 262 -157z m-4240 -341 c177 -103 188
-108 233 -104 43 4 49 2 60 -22 37 -82 -88 -148 -128 -68 -7 14 -83 65 -190
128 -98 57 -181 104 -184 104 -3 0 -95 -61 -205 -135 -110 -74 -208 -135 -217
-135 -13 0 -18 8 -18 30 0 28 15 40 208 169 117 79 217 140 231 140 14 1 106
-47 210 -107z m4305 -15 c101 -68 195 -133 210 -144 29 -23 37 -73 11 -73 -8
0 -106 61 -216 135 -111 74 -207 135 -213 135 -25 0 -369 -210 -380 -232 -16
-32 -77 -37 -105 -9 -47 47 -13 103 60 100 40 -2 62 8 224 104 99 59 190 107
203 107 12 0 104 -55 206 -123z m-4417 -119 c27 -26 30 -59 6 -81 -23 -19 -41
-23 -74 -14 -21 5 -63 -9 -184 -61 -87 -37 -157 -71 -157 -76 0 -6 70 -45 155
-88 145 -73 156 -77 185 -66 27 11 35 9 59 -8 34 -25 40 -57 19 -90 -22 -32
-76 -33 -108 -1 -25 25 -68 45 -283 135 -138 58 -140 60 -149 96 -10 45 -4 52
69 84 155 67 336 142 344 142 5 0 11 7 15 15 6 16 39 33 65 34 8 1 25 -9 38
-21z m4214 -6 c8 -10 55 -35 104 -55 189 -77 308 -133 319 -149 7 -13 8 -23 1
-34 -8 -13 -254 -146 -453 -246 -61 -31 -113 61 -57 98 23 15 32 16 58 6 30
-11 41 -7 186 67 85 43 157 83 158 88 4 11 -317 150 -332 144 -32 -13 -63 -11
-78 4 -20 19 -22 66 -5 83 19 19 83 15 99 -6z m-3825 -395 c66 -57 2 -159 -75
-118 -13 7 -59 -16 -206 -105 -105 -63 -196 -114 -203 -114 -7 0 -90 53 -185
117 -94 64 -189 128 -210 142 -40 27 -57 65 -38 84 15 15 36 3 267 -150 96
-63 177 -113 181 -110 103 55 353 213 353 223 0 20 41 54 66 54 13 0 35 -11
50 -23z m3426 9 c10 -7 21 -24 27 -37 6 -16 62 -56 179 -126 93 -57 173 -103
177 -103 4 0 84 51 179 113 254 167 245 163 263 144 14 -14 14 -17 -2 -39 -10
-12 -32 -32 -49 -43 -17 -11 -108 -71 -202 -133 -95 -61 -180 -112 -189 -112
-10 0 -98 49 -196 110 -169 103 -180 109 -210 98 -39 -14 -76 2 -89 38 -13 34
-5 58 27 84 29 23 60 25 85 6z m-3031 -335 c64 -65 6 -170 -79 -140 -24 8 -46
3 -143 -37 -63 -26 -145 -59 -184 -74 -38 -15 -132 -53 -208 -84 -76 -31 -146
-56 -154 -56 -15 0 -401 236 -470 287 -35 25 -45 66 -19 76 8 3 121 -59 252
-139 132 -79 247 -144 257 -144 10 0 55 15 100 34 139 58 247 102 377 154 106
42 126 53 128 73 2 13 15 36 30 52 35 36 75 36 113 -2z m2652 9 c15 -12 29
-35 32 -53 7 -32 10 -33 303 -150 163 -65 303 -117 310 -117 8 0 119 63 248
141 129 77 242 139 251 137 35 -6 25 -35 -24 -70 -86 -63 -450 -278 -469 -278
-16 0 -322 116 -409 155 -17 8 -66 28 -110 45 -44 16 -91 36 -105 43 -20 10
-30 10 -52 0 -32 -16 -69 -5 -92 29 -23 33 -20 72 10 107 31 37 69 41 107 11z
m-3296 -569 c121 -42 156 -50 172 -42 54 30 121 0 121 -53 0 -52 -20 -70 -80
-71 -42 0 -55 4 -64 20 -6 11 -15 23 -21 27 -12 9 -300 108 -313 108 -6 0 -47
-31 -92 -70 -45 -38 -83 -70 -85 -70 -18 0 -35 16 -35 34 0 15 25 45 77 92 42
38 85 74 96 80 24 13 20 14 224 -55z m638 27 c22 -26 26 -38 21 -67 -6 -40
-28 -61 -62 -61 -19 0 -39 -27 -110 -147 -123 -210 -155 -261 -169 -273 -8 -6
-92 4 -256 32 -232 38 -245 42 -271 69 -39 41 -36 53 10 45 20 -3 137 -23 260
-44 l223 -38 105 176 104 175 -6 57 c-6 52 -4 59 19 82 39 39 97 36 132 -6z
m2690 7 c27 -26 32 -60 14 -98 -10 -22 -1 -42 89 -193 56 -93 107 -177 114
-186 12 -15 30 -13 243 23 127 21 242 39 258 39 27 0 27 0 10 -26 -9 -14 -27
-30 -40 -35 -39 -15 -445 -80 -477 -77 -28 3 -40 19 -148 203 -65 110 -123
203 -130 206 -7 4 -25 12 -41 20 -18 8 -31 25 -39 51 -11 36 -10 40 17 68 38
39 94 42 130 5z m808 -51 c67 -58 87 -81 85 -97 -6 -41 -37 -31 -112 37 -41
36 -80 66 -87 66 -7 0 -81 -23 -164 -52 -109 -38 -157 -60 -177 -80 -50 -53
-138 -23 -138 47 0 55 68 85 120 53 17 -11 44 -4 182 44 90 31 172 57 183 57
11 1 59 -33 108 -75z m-3309 -325 c44 -35 27 -119 -25 -119 -20 0 -80 -87
-177 -255 -52 -91 -60 -100 -89 -103 -18 -2 -113 12 -210 32 -98 19 -200 38
-227 42 -34 5 -58 16 -82 38 -37 33 -45 61 -16 52 25 -8 515 -96 517 -94 13
15 121 188 149 240 29 53 36 74 31 97 -16 73 68 118 129 70z m2270 11 c37 -14
50 -44 36 -86 -11 -34 -10 -37 87 -184 69 -105 104 -150 117 -150 23 0 327 56
411 76 33 7 70 14 83 14 23 0 23 0 5 -24 -10 -13 -27 -29 -37 -36 -21 -13
-444 -100 -487 -100 -23 0 -40 22 -140 176 -80 124 -122 180 -144 191 -37 19
-45 30 -45 65 0 17 9 34 26 47 29 23 50 26 88 11z"/>
<path d="M1460 3860 c0 -5 5 -10 10 -10 6 0 10 5 10 10 0 6 -4 10 -10 10 -5 0
-10 -4 -10 -10z"/>
<path d="M4150 3860 c0 -5 5 -10 10 -10 6 0 10 5 10 10 0 6 -4 10 -10 10 -5 0
-10 -4 -10 -10z"/>
<path d="M2851 3967 c-21 -24 -22 -28 -10 -56 8 -17 20 -31 26 -31 16 0 17
-22 2 -37 -7 -7 -13 -29 -16 -50 -2 -21 -6 -53 -10 -72 -5 -29 -3 -32 13 -28
87 26 94 18 30 -33 -25 -19 -50 -47 -57 -62 -15 -37 -25 -35 -39 6 -6 19 -22
47 -35 62 -21 24 -22 30 -11 44 12 13 12 17 0 28 -8 7 -12 17 -9 23 4 5 1 9
-4 9 -6 0 -11 7 -11 15 0 8 -4 15 -9 15 -8 0 -23 60 -25 100 -1 12 -13 14 -54
13 -81 -4 -181 -66 -120 -75 48 -7 86 3 91 24 8 28 31 17 35 -16 3 -24 -3 -29
-52 -51 -59 -26 -66 -37 -39 -67 15 -17 15 -18 -13 -18 -34 0 -102 -33 -126
-62 -21 -24 -24 -92 -5 -128 11 -20 19 -24 46 -22 l34 4 -29 -35 c-16 -19 -44
-47 -62 -62 -60 -50 -80 -125 -46 -173 14 -21 17 -21 45 -6 40 20 50 10 16
-16 -79 -63 -99 -206 -36 -260 51 -43 79 -53 138 -45 31 4 85 8 121 9 36 1 67
6 68 11 2 6 8 15 13 22 39 46 20 165 -29 184 -30 12 -100 7 -150 -9 -25 -8
-32 -8 -29 1 7 23 92 57 154 61 55 4 66 9 92 38 35 38 37 58 16 118 -16 45
-12 101 12 157 14 36 91 87 120 81 13 -3 4 -11 -29 -28 -50 -25 -58 -39 -58
-110 0 -36 6 -53 31 -83 l30 -37 -20 -26 c-24 -31 -27 -76 -6 -97 8 -8 12 -16
10 -18 -2 -3 4 -15 14 -28 15 -20 21 -22 39 -12 11 6 33 11 48 11 26 0 26 -1
-15 -31 -24 -17 -49 -46 -58 -67 -20 -48 -13 -150 16 -224 18 -47 27 -58 45
-58 12 0 27 5 34 12 24 24 24 -3 0 -30 -14 -15 -38 -52 -53 -82 -15 -30 -31
-57 -35 -60 -5 -3 -16 -29 -26 -59 -16 -51 -16 -56 0 -105 28 -81 37 -90 109
-94 l62 -4 85 62 c47 34 105 81 130 105 39 37 111 75 140 75 21 0 8 -20 -22
-36 l-33 -17 25 -10 c35 -13 177 -11 214 4 46 18 85 58 92 96 4 23 18 42 44
61 21 15 46 42 54 60 18 37 21 108 6 117 -5 3 -10 2 -10 -3 0 -12 -111 -62
-138 -62 -12 0 -38 -15 -58 -32 -36 -32 -40 -33 -153 -38 -96 -5 -124 -10
-164 -30 -74 -37 -125 -86 -159 -154 -17 -33 -33 -55 -35 -48 -6 17 16 111 28
118 5 3 18 23 29 44 11 21 39 50 63 67 44 28 44 29 50 98 5 60 4 72 -13 90
-28 30 -28 51 -1 131 23 66 23 74 11 119 -7 27 -26 62 -41 79 -18 21 -30 49
-34 81 -4 28 -16 67 -26 87 -15 30 -19 60 -19 146 0 104 -1 110 -24 125 -34
22 -64 134 -45 168 12 22 13 23 16 4 9 -51 36 -124 51 -138 9 -8 27 -18 40
-22 22 -6 22 -9 16 -93 -7 -97 5 -159 35 -186 18 -17 21 -16 60 6 36 20 43 21
51 8 15 -24 13 -26 -51 -54 -33 -15 -63 -34 -66 -42 -3 -8 18 -49 46 -90 58
-87 61 -106 29 -205 -23 -74 -20 -95 16 -109 34 -13 89 4 161 50 33 21 90 48
128 60 37 12 67 23 67 25 0 21 -29 57 -55 69 -58 28 -133 2 -186 -64 -35 -43
-37 -44 -58 -31 -23 15 24 79 92 122 53 35 65 38 120 37 34 -1 72 4 85 10 28
16 30 60 4 92 -15 19 -22 21 -38 12 -10 -6 -13 -12 -6 -12 6 0 12 -5 12 -11 0
-12 -100 -5 -188 13 -57 12 -65 31 -14 36 38 4 40 17 12 67 -11 20 -20 42 -20
50 0 27 -79 75 -124 76 -35 0 -38 2 -18 9 12 5 22 14 22 20 0 24 -41 89 -60
95 -22 7 -24 13 -11 34 5 8 16 11 25 8 20 -8 21 11 1 51 -12 23 -28 35 -65 47
-56 19 -65 35 -20 35 22 0 30 5 30 18 -1 36 -33 60 -100 73 -45 9 -71 20 -85
36 -13 15 -36 25 -65 29 -39 5 -48 3 -69 -19z m-191 -291 c-1 -33 -48 -138
-65 -143 -6 -2 -10 12 -10 29 0 32 -2 33 -42 36 -57 4 -55 22 1 22 63 0 91 25
89 81 -2 41 -1 42 13 25 8 -11 14 -34 14 -50z m325 -257 c-8 -35 4 -49 43 -49
12 0 22 -4 22 -10 0 -5 -15 -10 -32 -10 -18 0 -53 -11 -77 -25 -47 -28 -47
-28 -19 45 22 57 38 80 54 80 12 0 14 -7 9 -31z m-328 -1 c-4 -12 -2 -27 4
-34 17 -21 -8 -26 -40 -9 -38 19 -100 19 -125 0 -23 -17 -36 -19 -36 -5 0 23
64 51 107 47 26 -3 49 1 60 9 26 20 36 17 30 -8z m473 -457 c0 -9 -114 -61
-135 -61 -18 0 -27 28 -12 37 7 4 41 13 77 19 36 7 66 13 68 13 1 1 2 -3 2 -8z"/>
<path d="M2387 3820 c-26 -16 -52 -40 -57 -52 -16 -38 -33 -54 -72 -67 -20 -7
-51 -28 -68 -47 -35 -40 -38 -49 -10 -32 28 17 32 6 15 -35 -13 -32 -13 -37 2
-53 13 -12 27 -15 60 -10 50 7 54 -2 18 -39 -19 -18 -37 -25 -64 -25 -45 0
-73 -26 -88 -85 -12 -42 -7 -102 9 -122 8 -9 6 -13 -4 -13 -8 0 -21 11 -28 25
-15 27 -56 40 -100 30 -25 -6 -32 -14 -45 -58 -21 -70 -20 -107 3 -107 10 0
22 -4 28 -10 5 -5 36 -18 69 -29 l60 -19 -68 1 c-50 2 -70 -2 -77 -13 -12 -19
-13 -43 -1 -36 4 3 7 -14 6 -38 -2 -55 -3 -55 160 19 48 21 89 27 120 15 34
-13 35 -12 42 37 4 32 0 45 -21 70 -31 37 -33 47 -7 33 44 -23 56 3 21 47 -31
39 -28 139 6 206 14 29 31 55 37 59 6 4 10 31 8 68 -3 77 25 141 81 179 33 22
38 30 33 55 -3 16 -5 39 -5 52 0 31 -6 30 -63 -6z"/>
<path d="M3227 3831 c3 -11 16 -29 29 -42 13 -12 24 -28 24 -34 0 -7 15 -12
37 -11 51 1 55 26 10 71 -27 27 -43 35 -70 35 -30 0 -34 -3 -30 -19z"/>
<path d="M3340 3690 c0 -5 -11 -10 -24 -10 -13 0 -26 -6 -29 -14 -9 -23 28
-90 58 -106 24 -13 28 -13 37 3 5 10 13 15 18 12 17 -11 21 17 5 35 -18 20
-13 40 9 40 8 0 41 -27 75 -61 33 -34 61 -59 61 -55 0 11 -34 76 -40 76 -3 0
-15 8 -26 18 -28 26 -110 72 -128 72 -9 0 -16 -4 -16 -10z"/>
<path d="M2077 3516 c-15 -11 -77 -143 -77 -162 0 -3 18 -4 39 -2 38 2 40 4
51 47 6 24 20 55 30 68 16 20 17 28 7 44 -14 22 -25 23 -50 5z"/>
<path d="M3698 3123 c5 -21 7 -23 10 -9 2 10 0 22 -6 28 -6 6 -7 0 -4 -19z"/>
<path d="M3685 3010 c-11 -5 -33 -9 -50 -9 -54 -2 -102 -21 -171 -68 -55 -37
-79 -48 -121 -51 -60 -5 -68 -12 -76 -64 l-6 -38 38 0 c21 0 60 -7 87 -15 77
-23 95 -20 153 30 29 25 65 48 79 51 74 15 132 65 132 115 0 56 -17 69 -65 49z"/>
<path d="M2192 2959 c-23 -7 -43 -26 -70 -66 l-37 -57 -3 42 c-2 23 -5 42 -6
42 -2 0 -25 -9 -50 -21 -28 -12 -64 -20 -89 -18 -58 3 -94 -16 -101 -53 -12
-59 -6 -85 23 -117 35 -37 63 -39 146 -10 57 20 63 20 140 6 44 -9 106 -18
137 -22 88 -10 161 -73 221 -190 32 -64 52 -82 102 -90 29 -5 49 -18 75 -46
19 -22 52 -46 74 -53 36 -12 40 -12 63 10 25 23 26 28 21 106 -7 111 -34 166
-99 204 -27 15 -49 32 -49 37 0 9 29 5 64 -9 11 -4 16 0 16 12 0 27 -19 91
-42 146 -27 63 -69 78 -183 64 -101 -11 -156 2 -206 50 -40 39 -90 51 -147 33z"/>
<path d="M3732 2659 c-32 -32 -37 -47 -33 -108 2 -28 0 -33 -14 -27 -10 3 -29
-2 -45 -14 -16 -11 -42 -23 -58 -26 -25 -5 -31 -12 -37 -40 -7 -40 -25 -36
-25 5 0 28 0 28 -82 35 -46 3 -94 9 -108 12 -20 4 -43 -6 -101 -45 -42 -28
-99 -71 -127 -95 -52 -45 -82 -56 -153 -60 -33 -2 -43 -8 -65 -40 -48 -70 -42
-140 14 -166 26 -11 26 -12 7 -26 -18 -14 -18 -15 -2 -43 9 -16 17 -40 17 -54
0 -37 52 -58 150 -59 l79 -1 48 49 c26 27 69 66 94 86 38 30 46 41 42 63 -3
14 -9 28 -14 31 -17 10 -9 24 15 24 16 0 27 -7 31 -20 6 -20 35 -28 35 -10 0
6 3 9 8 8 4 -1 16 3 27 9 19 10 24 12 43 14 4 0 -24 11 -63 24 l-70 24 -55
-20 c-30 -12 -73 -29 -95 -40 -47 -22 -185 -69 -202 -69 -7 0 -13 5 -13 10 0
6 9 10 21 10 11 0 33 8 47 19 27 18 206 101 220 101 4 0 24 16 45 36 32 30 37
41 37 80 0 25 -7 56 -16 70 -21 31 -12 41 18 22 42 -27 53 -61 40 -119 -15
-65 -6 -79 55 -79 132 0 340 202 360 349 5 37 -19 111 -36 111 -4 0 -22 -14
-39 -31z m-509 -641 c-24 -25 -34 -28 -89 -28 -55 0 -162 15 -171 24 -2 2 -1
9 2 17 4 11 35 14 145 14 l139 0 -26 -27z"/>
<path d="M2025 2668 c-16 -6 -59 -13 -94 -17 -76 -7 -91 -22 -71 -70 14 -34
76 -72 137 -86 l33 -7 -7 47 c-5 41 -4 47 11 44 10 -2 24 -21 31 -42 33 -96
108 -166 171 -159 27 3 35 10 40 31 3 14 10 37 15 50 9 21 12 22 24 10 10 -10
12 -24 6 -50 -12 -54 -5 -88 27 -127 53 -67 72 -75 164 -74 l83 1 -25 -20
c-24 -20 -24 -21 -6 -35 10 -7 24 -15 30 -17 6 -2 8 -8 4 -12 -4 -4 -23 2 -43
14 -21 12 -53 21 -77 21 -57 0 -113 37 -168 109 -38 50 -50 60 -77 60 -28 1
-33 -3 -44 -36 -16 -53 -19 -56 -36 -41 -11 9 -14 23 -9 55 3 24 2 43 -4 43
-5 0 -30 18 -56 40 -25 23 -48 39 -50 37 -3 -2 -9 -18 -13 -35 -8 -27 -7 -32
12 -37 48 -14 77 -31 77 -44 0 -9 -7 -11 -22 -7 -13 4 -38 9 -55 13 -29 5 -33
3 -33 -16 0 -12 6 -21 15 -21 10 0 15 -10 15 -32 0 -48 43 -96 118 -131 74
-34 112 -30 122 13 6 24 7 24 19 -10 16 -43 80 -86 139 -96 47 -7 55 5 20 29
-21 14 -22 17 -7 31 14 15 18 14 54 -14 48 -38 73 -45 155 -44 65 1 114 17
139 47 6 9 13 47 15 86 3 71 3 71 -23 71 -33 1 -90 36 -125 77 -17 21 -45 37
-79 47 -29 9 -59 22 -67 29 -24 19 -76 89 -95 127 -40 81 -108 110 -176 74
-39 -20 -49 -11 -20 20 l23 24 -49 16 c-66 22 -132 27 -168 14z"/>
<path d="M3690 2275 c0 -8 -5 -15 -11 -15 -5 0 -8 -4 -4 -9 5 -9 -30 -81 -45
-91 -3 -3 -12 -21 -18 -40 l-12 -35 21 25 c11 14 29 45 40 70 11 25 27 58 35
74 17 35 17 36 4 36 -5 0 -10 -7 -10 -15z"/>
<path d="M1960 2155 c21 -29 63 -64 77 -65 6 0 18 -9 26 -20 16 -23 65 -40
117 -40 56 0 78 -10 90 -41 15 -35 71 -79 102 -79 13 0 39 5 58 11 50 15 57
16 135 24 39 3 81 12 94 20 l25 13 -35 7 c-19 4 -92 7 -164 7 -118 -1 -133 1
-163 21 -17 12 -35 30 -38 40 -4 12 -16 17 -47 17 -49 0 -172 42 -202 69 -11
10 -29 17 -40 15 -10 -1 -26 3 -35 9 -13 11 -13 10 0 -8z"/>
<path d="M2120 1980 c0 -12 65 -68 116 -99 73 -44 124 -41 72 5 -13 11 -36 36
-53 56 -26 30 -37 36 -82 40 -29 3 -53 2 -53 -2z"/>
<path d="M2910 1884 c0 -8 0 -17 1 -20 0 -4 -5 -11 -13 -15 -11 -7 -10 -14 4
-39 10 -17 13 -28 8 -25 -6 3 -10 2 -10 -3 0 -42 266 -22 348 25 46 27 55 38
20 24 -41 -16 -165 -41 -199 -40 -19 0 -27 3 -19 6 61 22 129 57 120 63 -6 4
-39 8 -73 9 -34 1 -90 8 -124 15 -53 12 -63 11 -63 0z"/>
<path d="M2708 1805 c-5 -24 -3 -25 38 -25 43 0 56 -11 32 -26 -6 -4 -37 -13
-67 -19 -49 -11 -53 -13 -30 -19 15 -4 44 -3 65 3 43 12 111 68 98 81 -10 8
-94 30 -117 30 -8 0 -17 -11 -19 -25z"/>
<path d="M4495 3940 c-3 -5 -2 -10 4 -10 5 0 13 5 16 10 3 6 2 10 -4 10 -5 0
-13 -4 -16 -10z"/>
<path d="M1480 3339 c0 -5 5 -7 10 -4 6 3 10 8 10 11 0 2 -4 4 -10 4 -5 0 -10
-5 -10 -11z"/>
<path d="M4135 3340 c3 -5 8 -10 11 -10 2 0 4 5 4 10 0 6 -5 10 -11 10 -5 0
-7 -4 -4 -10z"/>
<path d="M1470 2256 c0 -8 7 -16 15 -20 10 -4 15 1 15 14 0 11 -7 20 -15 20
-8 0 -15 -6 -15 -14z"/>
<path d="M4130 2261 c-7 -13 -7 -22 0 -26 13 -8 30 3 30 20 0 23 -18 27 -30 6z"/>
<path d="M1450 1724 c0 -9 7 -14 17 -12 25 5 28 28 4 28 -12 0 -21 -6 -21 -16z"/>
<path d="M4145 1740 c-4 -7 -3 -16 3 -22 14 -14 45 -2 40 15 -6 16 -34 21 -43
7z"/>
</g>
</svg>
